<svg xmlns="http://www.w3.org/2000/svg" width="2400" height="1350" viewBox="0 0 2400 1350" role="img" aria-label="Open hands holding a glowing data heart">
  <defs>
    <linearGradient id="g0" x1="0" y1="0" x2="1" y2="1">
      <stop offset="0" stop-color="#05070c"/>
      <stop offset="1" stop-color="#0b1020"/>
    </linearGradient>
    <radialGradient id="goldGlow" cx="30%" cy="24%" r="70%">
      <stop offset="0" stop-color="rgba(212,175,55,.26)"/>
      <stop offset="0.55" stop-color="rgba(212,175,55,.08)"/>
      <stop offset="1" stop-color="rgba(212,175,55,0)"/>
    </radialGradient>
    <radialGradient id="blueGlow" cx="80%" cy="18%" r="70%">
      <stop offset="0" stop-color="rgba(255,255,255,.08)"/>
      <stop offset="1" stop-color="rgba(120,180,255,0)"/>
    </radialGradient>
    <filter id="blur" x="-20%" y="-20%" width="140%" height="140%">
      <feGaussianBlur stdDeviation="8"/>
    </filter>
  </defs>

  <rect width="2400" height="1350" fill="url(#g0)"/>
  <rect width="2400" height="1350" fill="url(#goldGlow)"/>
  <rect width="2400" height="1350" fill="url(#blueGlow)"/>

  <g opacity="0.8"><path d="M 1501.7 -76.2 Q 1110.6 214.2 635.4 760.7" stroke="rgba(243,210,122,0.106)" stroke-width="1.54" fill="none"/><path d="M 936.6 83.6 Q 1210.8 778.7 2014.4 1368.0" stroke="rgba(243,210,122,0.119)" stroke-width="2.16" fill="none"/><path d="M 1461.1 1074.5 Q 1130.0 1201.3 339.7 1140.7" stroke="rgba(243,210,122,0.106)" stroke-width="1.72" fill="none"/><path d="M -146.2 768.4 Q 730.2 502.5 2018.3 344.7" stroke="rgba(243,210,122,0.120)" stroke-width="1.19" fill="none"/><path d="M 2050.9 1135.6 Q 1169.4 683.2 1005.2 85.4" stroke="rgba(243,210,122,0.139)" stroke-width="1.13" fill="none"/><path d="M 1271.3 778.8 Q 741.2 317.6 622.9 -87.3" stroke="rgba(243,210,122,0.122)" stroke-width="1.04" fill="none"/><path d="M 1982.8 527.4 Q 1184.3 850.6 85.6 829.8" stroke="rgba(243,210,122,0.068)" stroke-width="1.91" fill="none"/><path d="M 2159.8 1338.4 Q 1766.9 598.4 1384.1 -20.2" stroke="rgba(243,210,122,0.126)" stroke-width="1.43" fill="none"/><path d="M 470.0 991.0 Q 953.7 314.6 725.8 62.0" stroke="rgba(243,210,122,0.108)" stroke-width="2.16" fill="none"/><path d="M 1909.5 150.3 Q 2167.4 693.4 1902.9 1010.1" stroke="rgba(243,210,122,0.130)" stroke-width="1.77" fill="none"/><path d="M 1302.6 12.9 Q 2034.7 234.2 2419.1 198.3" stroke="rgba(243,210,122,0.108)" stroke-width="1.31" fill="none"/><path d="M 744.8 853.3 Q 754.5 1203.5 554.7 1132.4" stroke="rgba(243,210,122,0.112)" stroke-width="2.06" fill="none"/><path d="M -41.9 -18.9 Q 402.8 308.7 1562.1 274.0" stroke="rgba(243,210,122,0.075)" stroke-width="1.29" fill="none"/><path d="M 2127.3 542.8 Q 956.4 490.7 -5.9 471.2" stroke="rgba(243,210,122,0.138)" stroke-width="1.06" fill="none"/></g>
  <g><circle cx="2249.1" cy="366.2" r="4.2" fill="rgba(212,175,55,0.056)"/><circle cx="1847.1" cy="939.8" r="4.0" fill="rgba(212,175,55,0.081)"/><circle cx="218.6" cy="1338.7" r="3.0" fill="rgba(212,175,55,0.066)"/><circle cx="293.2" cy="483.0" r="5.5" fill="rgba(212,175,55,0.074)"/><circle cx="231.1" cy="796.4" r="5.5" fill="rgba(212,175,55,0.080)"/><circle cx="154.7" cy="177.8" r="5.7" fill="rgba(212,175,55,0.126)"/><circle cx="1610.8" cy="646.2" r="2.7" fill="rgba(212,175,55,0.123)"/><circle cx="1291.4" cy="691.3" r="3.9" fill="rgba(212,175,55,0.059)"/><circle cx="744.0" cy="511.5" r="2.4" fill="rgba(212,175,55,0.068)"/><circle cx="1040.5" cy="111.7" r="3.7" fill="rgba(212,175,55,0.066)"/><circle cx="831.9" cy="395.0" r="4.8" fill="rgba(212,175,55,0.099)"/><circle cx="1302.1" cy="1003.2" r="4.2" fill="rgba(212,175,55,0.118)"/><circle cx="1608.5" cy="109.5" r="3.3" fill="rgba(212,175,55,0.107)"/><circle cx="444.1" cy="148.6" r="3.7" fill="rgba(212,175,55,0.054)"/><circle cx="571.8" cy="109.2" r="3.0" fill="rgba(212,175,55,0.065)"/><circle cx="1211.0" cy="1045.7" r="2.7" fill="rgba(212,175,55,0.081)"/><circle cx="1209.8" cy="845.4" r="5.7" fill="rgba(212,175,55,0.088)"/><circle cx="2253.9" cy="321.8" r="5.6" fill="rgba(212,175,55,0.131)"/><circle cx="1611.8" cy="1213.5" r="5.0" fill="rgba(212,175,55,0.135)"/><circle cx="548.8" cy="1050.2" r="5.5" fill="rgba(212,175,55,0.104)"/><circle cx="323.6" cy="907.1" r="4.0" fill="rgba(212,175,55,0.079)"/><circle cx="2211.7" cy="1224.5" r="5.5" fill="rgba(212,175,55,0.085)"/><circle cx="595.8" cy="459.9" r="4.3" fill="rgba(212,175,55,0.067)"/><circle cx="1714.8" cy="311.5" r="2.1" fill="rgba(212,175,55,0.052)"/><circle cx="1425.9" cy="350.0" r="5.3" fill="rgba(212,175,55,0.091)"/><circle cx="105.5" cy="1174.2" r="2.4" fill="rgba(212,175,55,0.133)"/><circle cx="1871.5" cy="925.7" r="3.8" fill="rgba(212,175,55,0.134)"/><circle cx="2283.4" cy="0.2" r="4.8" fill="rgba(212,175,55,0.129)"/><circle cx="269.2" cy="441.4" r="3.3" fill="rgba(212,175,55,0.072)"/><circle cx="391.6" cy="1322.8" r="5.0" fill="rgba(212,175,55,0.140)"/><circle cx="30.4" cy="372.1" r="2.6" fill="rgba(212,175,55,0.123)"/><circle cx="1917.8" cy="1334.6" r="5.0" fill="rgba(212,175,55,0.073)"/><circle cx="2117.3" cy="1058.3" r="4.6" fill="rgba(212,175,55,0.080)"/><circle cx="1850.9" cy="1053.6" r="4.3" fill="rgba(212,175,55,0.055)"/><circle cx="1578.3" cy="0.7" r="5.7" fill="rgba(212,175,55,0.099)"/><circle cx="2016.1" cy="1335.4" r="4.0" fill="rgba(212,175,55,0.060)"/><circle cx="1117.4" cy="856.0" r="2.1" fill="rgba(212,175,55,0.070)"/><circle cx="1132.2" cy="472.5" r="5.7" fill="rgba(212,175,55,0.102)"/></g>

  <g filter="url(#blur)" opacity="0.9">
    <circle cx="1752.0" cy="621.0" r="210" fill="rgba(255,255,255,.04)"/>
  </g>

  <g><circle cx="1752.0" cy="621.0" r="160" fill="none" stroke="rgba(212,175,55,0.180)" stroke-width="1.2"/><circle cx="1752.0" cy="621.0" r="215" fill="none" stroke="rgba(212,175,55,0.150)" stroke-width="1.2"/><circle cx="1752.0" cy="621.0" r="270" fill="none" stroke="rgba(212,175,55,0.120)" stroke-width="1.2"/><circle cx="1752.0" cy="621.0" r="325" fill="none" stroke="rgba(212,175,55,0.090)" stroke-width="1.2"/></g>

  <g>
    <rect x="1562.0" y="555.0" width="380" height="132" rx="26" fill="rgba(255,255,255,.05)" stroke="rgba(255,255,255,.10)"/>
    <text x="1752.0" y="613.0" text-anchor="middle" font-family="ui-sans-serif,system-ui" font-size="50" fill="rgba(245,247,255,.92)" letter-spacing="2">W3</text>
    <text x="1752.0" y="655.0" text-anchor="middle" font-family="ui-sans-serif,system-ui" font-size="22" fill="rgba(245,247,255,.60)" letter-spacing="1">w3.charity</text>
  </g>

  <g opacity="0.9">
    <circle cx="432.0" cy="1053.0" r="280" fill="rgba(212,175,55,.06)"/>
    <circle cx="432.0" cy="1053.0" r="279" fill="none" stroke="rgba(255,255,255,.06)"/>
  </g>
</svg>